<?xml version="1.0" encoding="UTF-8"?><svg id="Layer_1" xmlns="http://www.w3.org/2000/svg" width="107.02" height="81.45" xmlns:xlink="http://www.w3.org/1999/xlink" viewBox="0 0 107.02 81.45"><defs><style>.cls-1,.cls-2,.cls-3,.cls-4,.cls-5{fill-rule:evenodd;}.cls-1,.cls-6{fill:#006;}.cls-2{fill:url(#linear-gradient-3);}.cls-3{fill:url(#linear-gradient-2);}.cls-4{fill:#b6c2db;opacity:.89;}.cls-5{fill:url(#linear-gradient);}</style><linearGradient id="linear-gradient" x1="43.66" y1="10.64" x2="43.64" y2="9.1" gradientTransform="translate(0 91) scale(1 -1)" gradientUnits="userSpaceOnUse"><stop offset="0" stop-color="#a1a3a8"/><stop offset="1" stop-color="#c1c3c7"/></linearGradient><linearGradient id="linear-gradient-2" x1="15" y1="25.72" x2="45.65" y2="52.47" gradientTransform="translate(0 91) scale(1 -1)" gradientUnits="userSpaceOnUse"><stop offset="0" stop-color="#eaeaea"/><stop offset=".13" stop-color="#d7d7d7"/><stop offset="1" stop-color="#eaeaea"/></linearGradient><linearGradient id="linear-gradient-3" x1="76.42" y1="23.5" x2="76.42" y2="91" gradientTransform="translate(0 91) scale(1 -1)" gradientUnits="userSpaceOnUse"><stop offset="0" stop-color="#e9e9e9"/><stop offset=".91" stop-color="#ddd"/><stop offset="1" stop-color="#ededed"/></linearGradient></defs><path class="cls-5" d="M87.3,80.55l-.68.9H0l29.11-.9h58.19Z"/><path class="cls-3" d="M17.92,70.2c0,5.96,4.84,10.8,10.8,10.8s10.8-4.84,10.8-10.8V31.5h-21.6v38.7Z"/><path class="cls-1" d="M28.72,81h57.5c4.03,0,7.3-3.27,7.3-7.3V0h-48.72c-2.92,0-5.28,2.37-5.28,5.28v64.92c0,5.96-4.84,10.8-10.8,10.8Z"/><path class="cls-4" d="M28.72,81h57.5c4.03,0,7.3-3.27,7.3-7.3V0h-48.72c-2.92,0-5.28,2.37-5.28,5.28v64.92c0,5.96-4.84,10.8-10.8,10.8Z"/><path class="cls-2" d="M53.02,67.5h54V7.3c0-4.03-3.27-7.3-7.3-7.3h-53.9c3.98,0,7.2,3.22,7.2,7.2v60.3Z"/><rect class="cls-6" x="67.42" y="50.4" width="25.2" height="2.7"/><rect class="cls-6" x="67.42" y="45" width="25.2" height="2.7"/><path class="cls-1" d="M67.42,26.1c0-3.98,3.22-7.2,7.2-7.2,2.11,0,4.06.92,5.4,2.44,1.34-1.52,3.29-2.44,5.4-2.44,3.98,0,7.2,3.22,7.2,7.2,0,2.18-.98,4.2-2.57,5.52l-8.39,7.8c-.92.86-2.35.86-3.27,0l-8.38-7.79c-1.63-1.36-2.59-3.37-2.59-5.53Z"/></svg>