<?xml version="1.0" encoding="UTF-8"?><svg id="Layer_1" xmlns="http://www.w3.org/2000/svg" width="36.26" height="40.19" viewBox="0 0 36.26 40.19"><defs><style>.cls-1{fill:#484d57;}.cls-1,.cls-2,.cls-3{fill-rule:evenodd;}.cls-2{fill:#b6c2db;}.cls-3{fill:#006;}</style></defs><path class="cls-2" d="M30.38,29.63c2.8,0,5.07-2.27,5.07-5.07s-2.27-5.07-5.07-5.07c0,0,0,10.14,0,10.14Z"/><path class="cls-3" d="M31.19,28.75v-8.38c1.97.38,3.46,2.11,3.46,4.19s-1.49,3.81-3.46,4.19ZM31.6,4.67C28.59,1.66,24.6,0,20.37,0s-8.22,1.66-11.23,4.67c-1.14,1.14-2.09,2.43-2.83,3.82-.47,1.29,1.06,1.61,1.43.75,2.4-4.53,7.16-7.62,12.63-7.62,7.87,0,14.28,6.41,14.28,14.28v4.63c-1.07-1.13-2.59-1.84-4.27-1.84-.45,0-.81.36-.81.81v10.15c0,.45.36.81.81.81,3.21,0,5.83-2.59,5.88-5.79v-8.76c0-4.24-1.65-8.23-4.66-11.24Z"/><path class="cls-3" d="M34.79,29.55c-.2,0-.41.08-.55.23-.14.14-.23.35-.23.55s.08.4.23.55c.14.14.35.23.55.23s.41-.08.55-.23.23-.35.23-.55c0-.21-.08-.41-.23-.55-.14-.14-.34-.23-.55-.23Z"/><path class="cls-3" d="M23.14,37.27l1.14-.24.24,1.14-1.14.24-.24-1.14ZM34.35,32.09c-.39-.22-.88-.09-1.1.3-1.57,2.71-4.03,4.57-7.15,5.43l-.41-1.91c-.09-.44-.52-.71-.96-.62l-2.72.58c-.44.09-.71.52-.62.96l.58,2.72c.09.44.52.71.96.62l2.72-.58c3.95-.84,7.06-3.05,8.99-6.39.23-.39.1-.89-.29-1.11Z"/><path class="cls-3" d="M2.74,30.71c-1.51,0-2.74-1.23-2.74-2.74v-14.36c0-1.51,1.23-2.74,2.74-2.74h19.73c1.51,0,2.74,1.23,2.74,2.74v18.05c0,.96-.78,1.74-1.74,1.74-.53,0-1.02-.24-1.35-.64l-1.66-2.05s-17.72,0-17.72,0ZM2.74,12.37c-.69,0-1.24.56-1.24,1.25v14.36c0,.69.56,1.25,1.24,1.25h18.42l2.11,2.6c.05.06.12.09.19.09.14,0,.25-.11.25-.25V13.61c0-.69-.56-1.25-1.25-1.25H2.74Z"/><path class="cls-1" d="M17.19,20.01h5.02v1.31l-2.63,6.51h-1.62l2.56-6.34h-3.33v-1.48ZM15.21,19.88v1.43h-.83v1.33h-1.54v-1.33h-3.68v-1.43l2.68-5.21h1.64l-2.67,5.21h2.02v-1.85h1.54v1.85h.84ZM3.12,22.63v-1.15l2.66-2.75c.5-.52.89-1.04.89-1.56,0-.63-.42-1.02-1.01-1.02s-1.04.36-1.3.92l-1.29-.76c.5-1.12,1.51-1.65,2.57-1.65,1.33,0,2.57.89,2.57,2.46,0,.95-.54,1.76-1.28,2.5l-1.52,1.53h2.92v1.49H3.12Z"/><path class="cls-3" d="M18.89,14.94l-6.94,12.89h.67l6.93-12.89h-.66Z"/></svg>