<?xml version="1.0" encoding="UTF-8"?><svg id="Layer_1" xmlns="http://www.w3.org/2000/svg" width="42.28" height="40.25" viewBox="0 0 42.28 40.25"><defs><style>.cls-1{fill:#b6c2db;}.cls-2{fill:#484d57;}.cls-2,.cls-3{fill-rule:evenodd;}.cls-3,.cls-4{fill:#006;}</style></defs><path class="cls-1" d="M11.8,39.46h-7.58c-.87,0-1.58-.71-1.58-1.58v-12.87c0-.87.71-1.58,1.58-1.58h7.58c.87,0,1.58.71,1.58,1.58v12.87c0,.87-.71,1.58-1.58,1.58Z"/><path class="cls-4" d="M8.01,35.52c-.21,0-.41.08-.56.23-.15.15-.23.35-.23.56s.08.41.23.56c.15.15.35.23.56.23s.41-.08.56-.23c.15-.15.23-.35.23-.56s-.08-.41-.23-.56c-.15-.15-.35-.23-.56-.23Z"/><path class="cls-4" d="M38.37,15.06c-.21,0-.41.08-.56.23-.15.15-.23.35-.23.56s.08.41.23.56c.15.15.35.23.56.23s.41-.08.56-.23c.15-.15.23-.35.23-.56s-.08-.41-.23-.56c-.15-.15-.35-.23-.56-.23Z"/><path class="cls-3" d="M41.49,8.94c.21,0,.41.08.56.23.15.15.23.35.23.56v29.73c0,.44-.35.79-.79.79h-23.83c-.96,0-1.89-.35-2.61-.98l-.94-.82c-.26,1.03-1.19,1.8-2.3,1.8h-7.58c-1.31,0-2.37-1.06-2.37-2.37v-12.87c0-1.31,1.06-2.37,2.37-2.37h7.58c.81,0,1.53.41,1.96,1.03l2.51-2.51c.28-.28.86-.76,1.85-1.29,1.51-.81,3.16-1.39,3.16-1.39v-8.76c0-.44.35-.79.79-.79h19.42ZM4.23,38.68h7.58c.44,0,.79-.35.79-.79v-12.87c0-.44-.35-.79-.79-.79h-3v9.09c0,.44-.35.79-.79.79s-.79-.35-.79-.79v-9.09h-3c-.44,0-.79.35-.79.79v12.87c0,.44.35.79.79.79ZM16.08,38.08l-1.91-1.66v-10.92l2.56-2.59s1.09-.94,1.82-1.35c1.54-.87,2.73-1.21,2.73-1.21v2.12l-.76,2.04c.09.35.4.59.76.59h13.26c.61,0,1.11.5,1.11,1.11s-.5,1.11-1.11,1.11h-7.95c-.44,0-.79.35-.79.79s.35.79.79.79h10.42c.61,0,1.11.5,1.11,1.11s-.5,1.11-1.11,1.11h-10.42c-.44,0-.79.35-.79.79s.35.79.79.79h8.74c.61,0,1.11.5,1.11,1.11s-.5,1.11-1.11,1.11h-8.74c-.44,0-.79.35-.79.79s.35.79.79.79h6.04c.61,0,1.11.5,1.11,1.11s-.5,1.11-1.11,1.11h-14.96c-.58,0-1.14-.21-1.58-.59ZM35.31,37.57c0,.39-.09.77-.24,1.11h5.63V10.86h-17.84v12.66h11.67c1.48,0,2.68,1.2,2.68,2.68,0,.39-.09.77-.21,1.11.2,0,.39.02.58.06v-8.98c0-.44.35-.79.79-.79s.79.35.79.79v10.01c.33.45.53,1,.53,1.6,0,1.23-.84,2.28-1.97,2.59.18.36.29.77.29,1.2,0,1.48-1.2,2.68-2.68,2.68h-.25c.15.34.24.71.24,1.11Z"/><path class="cls-3" d="M25.48,10.63h4.39v13.16h-4.39v-13.16Z"/><path class="cls-2" d="M0,8.1c0,2.94,2.49,7.25,7.46,13.09.34.4.95.4,1.29,0,4.96-5.84,7.46-10.15,7.46-13.09C16.2,3.63,12.57,0,8.1,0S0,3.63,0,8.1ZM8.1,1.69c3.54,0,6.41,2.87,6.41,6.41,0,2.29-2.13,6.08-6.41,11.23C3.82,14.18,1.69,10.39,1.69,8.1c0-3.54,2.87-6.41,6.41-6.41Z"/><path class="cls-2" d="M4.13,8.1c0,2.19,1.78,3.97,3.97,3.97s3.97-1.78,3.97-3.97-1.78-3.97-3.97-3.97-3.97,1.78-3.97,3.97ZM10.55,8.1c0,1.35-1.1,2.45-2.45,2.45s-2.45-1.1-2.45-2.45,1.1-2.45,2.45-2.45,2.45,1.1,2.45,2.45Z"/></svg>