<?xml version="1.0" encoding="UTF-8"?><svg id="Layer_1" xmlns="http://www.w3.org/2000/svg" width="39.09" height="40.5" viewBox="0 0 39.09 40.5"><defs><style>.cls-1,.cls-2,.cls-3{fill-rule:evenodd;}.cls-1,.cls-4{fill:#484d57;}.cls-2{fill:#b6c2db;}.cls-3,.cls-5{fill:#006;}.cls-6{fill:#424750;}</style></defs><path class="cls-2" d="M15.61,2.76l16.11,5.03v7.88l-5.33,1.74v-7.49L9.62,4.58l5.99-1.81Z"/><path class="cls-6" d="M4.4,21.26c-.44,0-.79.35-.79.79v5.75c0,.44.35.79.79.79s.79-.35.79-.79v-5.75c0-.44-.35-.79-.79-.79Z"/><path class="cls-3" d="M39.05,6.57c-.04-.16-.12-.28-.22-.37-.05-.05-.1-.09-.16-.13-.03-.02-.07-.04-.1-.05-.02-.01-18.77-5.99-18.77-5.99-.17-.05-.35-.05-.51,0L.59,5.99c-.35.11-.59.44-.59.81v20.39c0,.37.24.7.59.81l6.56,2.22c.17.05.55-1.48.55-1.48l-6.01-2.17V7.42l5.66-1.8,15.89,5.06-3.71,1.18L5.35,7.34c-.45-.14-.92.1-1.07.55-.14.45.11.93.55,1.07l13.86,4.41v10.1c0,.47.38.85.85.85s.85-.38.85-.85v-10.1l4.82-1.53v5.64c0,.47.38.85.85.85.09,0,.17-.01.25-.04l1.98-.63c.45-.14.69-.62.55-1.07-.14-.45-.62-.69-1.07-.55l-.88.28v-5.01l4.39-1.4v5.01l-.97.31c-.45.14-.69.62-.55,1.07.11.35.44.59.81.59.09,0,.17-.01.25-.04l1.56-.5c.35-.11.59-.44.59-.81v-6.18l4.39-1.4v18.61l-1.1.35c-.45.13-.71.6-.59,1.05.13.45.6.71,1.05.59.02,0,1.75-.56,1.75-.56.35-.11.59-.44.59-.81V6.8c0-.08-.01-.15-.04-.23ZM26.06,9.78l-15.89-5.06,3.29-1.05,15.89,5.06-3.29,1.05ZM16.26,2.79l15.89,5.06,3.29-1.05L19.54,1.74l-3.29,1.05Z"/><path class="cls-6" d="M4.4,18.9c-.21,0-.41.08-.56.23-.15.15-.23.35-.23.56s.08.41.23.56c.15.15.35.23.56.23s.41-.08.56-.23c.15-.15.23-.35.23-.56s-.08-.41-.23-.56-.35-.23-.56-.23Z"/><path class="cls-5" d="M7.44,28.69c-.21,0-.41.08-.56.23-.15.15-.23.35-.23.56s.08.41.23.56c.15.15.35.23.56.23s.41-.08.56-.23c.15-.15.23-.35.23-.56s-.08-.41-.23-.56c-.15-.15-.35-.23-.56-.23Z"/><path class="cls-4" d="M33.14,18.05c-.47,0-.85.38-.85.85v8.86c0,4.22-3.43,7.64-7.65,7.65h-10.2c-.47,0-.85.38-.85.85v1.77l-6.17-4.32,6.17-4.32v1.77c0,.47.38.85.85.85h7.65c2.81,0,5.1-2.28,5.1-5.1v-.36c0-.47-.38-.85-.85-.85s-.85.38-.85.85v.36c0,1.88-1.52,3.4-3.4,3.4h-6.8v-2.55c0-.47-.38-.85-.85-.85-.17,0-.34.05-.49.15l-8.5,5.95c-.38.27-.48.8-.21,1.18.06.08.13.15.21.21l8.5,5.95c.38.27.91.18,1.18-.21.1-.14.15-.31.15-.49v-2.55h9.35c5.16,0,9.34-4.19,9.35-9.35v-8.86c0-.47-.38-.85-.85-.85Z"/><path class="cls-1" d="M6.64,13.84h8.5v2.2l-4.46,10.96h-2.75l4.32-10.68h-5.62v-2.48Z"/></svg>