<?xml version="1.0" encoding="UTF-8"?><svg id="Layer_1" xmlns="http://www.w3.org/2000/svg" width="52.88" height="35.56" viewBox="0 0 52.88 35.56"><defs><style>.cls-1{fill:#b6c2db;fill-rule:evenodd;}.cls-2{fill:#006;}.cls-3{fill:#484d57;}</style></defs><path class="cls-1" d="M29.11,4.22l16.11,5.03v7.88l-5.33,1.74v-7.49l-16.77-5.35,5.99-1.81Z"/><path class="cls-2" d="M29.88,4.2l16.21,5.18c.35.11.59.44.59.8v6.84c0,.36-.23.68-.56.8l-1.58.56c-.44.16-.92-.08-1.08-.51s.08-.92.51-1.08l1.02-.36v-5.63l-18.06-5.77c-.77-.25-.79-1.34-.02-1.6l5.94-2.03c.17-.06.36-.06.53,0l18.9,5.96c.35.11.59.44.59.8v20.58c0,.37-.24.69-.59.8l-18.9,5.98c-.17.05-.35.05-.51,0l-18.66-5.98c-.35-.11-.59-.44-.59-.8v-2.78c0-.47.38-.84.84-.84s.84.38.84.84v2.17l17.82,5.71,18.05-5.71V8.78l-18.05-5.69-3.27,1.12Z"/><path class="cls-2" d="M51.78,7.46c.44-.14.92.11,1.06.55.14.44-.11.92-.55,1.06l-18.9,5.98c-.17.05-.34.05-.51,0l-14.42-4.59c-.44-.14-.69-.62-.55-1.06.14-.44.62-.69,1.06-.55l14.17,4.51,18.64-5.9Z"/><path class="cls-2" d="M41.55,17.54c.44-.15.92.09,1.07.54.15.44-.09.92-.54,1.07l-2.08.69c-.55.18-1.11-.23-1.11-.8v-6.23l-18.06-5.77c-.78-.25-.78-1.35,0-1.6l7.09-2.35c.44-.15.92.09,1.07.54.15.44-.09.92-.54,1.07l-4.63,1.53,16.17,5.17c.35.11.59.44.59.8v5.67l.97-.32Z"/><path class="cls-2" d="M15.31,8.92v4.07c0,.47-.38.84-.84.84s-.84-.38-.84-.84v-4.69c0-.37.24-.69.59-.81l6.7-2.1c.44-.14.92.11,1.06.55.14.44-.11.92-.55,1.06l-6.11,1.92Z"/><path class="cls-3" d="M22.43,14.85c.47,0,.84.38.84.84s-.38.84-.84.84H7.26c-.47,0-.84-.38-.84-.84s.38-.84.84-.84h15.18Z"/><path class="cls-3" d="M13.99,18.56c.47,0,.84.38.84.84s-.38.84-.84.84H.84c-.47,0-.84-.38-.84-.84s.38-.84.84-.84h13.15Z"/><circle class="cls-3" cx="4.72" cy="15.69" r=".84"/><circle class="cls-3" cx="7.09" cy="23.12" r=".84"/><path class="cls-3" d="M18.04,22.27c.47,0,.84.38.84.84s-.38.84-.84.84h-8.43c-.47,0-.84-.38-.84-.84s.38-.84.84-.84h8.43Z"/><path class="cls-3" d="M26.48,0c.47,0,.84.38.84.84s-.38.84-.84.84h-13.15c-.47,0-.84-.38-.84-.84s.38-.84.84-.84h13.15Z"/><path class="cls-3" d="M13.32,4.05c.47,0,.84.38.84.84s-.38.84-.84.84h-6.4c-.47,0-.84-.38-.84-.84s.38-.84.84-.84h6.4Z"/><path class="cls-2" d="M34.09,34.64c0,.47-.38.84-.84.84s-.84-.38-.84-.84v-4.17c0-.47.38-.84.84-.84s.84.38.84.84v4.17Z"/><path class="cls-2" d="M34.09,27.07c0,.47-.38.84-.84.84s-.84-.38-.84-.84v-12.05c0-.47.38-.84.84-.84s.84.38.84.84v12.05Z"/></svg>