<?xml version="1.0" encoding="UTF-8"?><svg id="Layer_1" xmlns="http://www.w3.org/2000/svg" width="107.05" height="13" viewBox="0 0 107.05 13"><defs><style>.cls-1{fill-rule:evenodd;}.cls-1,.cls-2{fill:#006;}</style></defs><path class="cls-2" d="M47.91.13c.06-.08.15-.13.25-.13h.32c.07,0,.1.08.06.13l-2.02,2.74c-.06.08-.15.13-.25.13h-.32c-.07,0-.1-.08-.06-.13l2.02-2.74Z"/><path class="cls-2" d="M43.74.33c.17,0,.3.12.31.29v.04s0,1,0,1c0,.18-.11.31-.28.33h-.04s-1.1,0-1.1,0c-.17,0-.3-.12-.31-.29v-.04s0-1,0-1c0-.18.11-.31.28-.33h.04s1.1,0,1.1,0Z"/><path class="cls-2" d="M58.13,2.72c-.18,0-.32-.14-.34-.32v-.04s0-1.66,0-1.66c0-.19.13-.34.31-.36h.04s.96,0,.96,0c.18,0,.32.14.34.32v.04s0,.47,0,.47h1.1c.18,0,.32.14.34.32v.04s0,.83,0,.83c0,.19-.13.34-.3.36h-.04s-2.41,0-2.41,0Z"/><path class="cls-2" d="M105.76,10.62c.18,0,.32.14.34.32v.04s0,1.66,0,1.66c0,.19-.13.34-.31.36h-.04s-.96,0-.96,0c-.18,0-.32-.14-.34-.32v-.04s0-.47,0-.47h-1.1c-.18,0-.32-.14-.34-.32v-.04s0-.83,0-.83c0-.19.13-.34.31-.36h.04s2.41,0,2.41,0Z"/><path class="cls-2" d="M93.48,2.73c.02.18.16.32.34.32h2.44c.17-.02.31-.17.31-.36v-.87c-.02-.18-.17-.32-.34-.32h-1.1s0-.47,0-.47v-.04c-.02-.18-.17-.32-.34-.32h-1c-.17.02-.31.17-.31.36v1.66s0,.04,0,.04Z"/><path class="cls-2" d="M34.42,3c.17,0,.3.12.31.29v.04s0,1,0,1c0,.18-.11.31-.28.33h-.04s-2.53,0-2.53,0c-.17,0-.3-.12-.31-.29v-.04s0-1,0-1c0-.18.11-.31.28-.33h.04s2.53,0,2.53,0Z"/><path class="cls-2" d="M101.37,10.92c-.02-.17-.14-.29-.31-.29h-2.56c-.16.02-.28.15-.28.33v1.04c.02.17.14.29.32.29h2.56c.16-.02.28-.15.28-.33v-1.04Z"/><path class="cls-2" d="M9.16,10.63c.17,0,.3.12.31.29v.04s0,1,0,1c0,.18-.11.31-.28.33h-.04s-2.53,0-2.53,0c-.17,0-.3-.12-.31-.29v-.04s0-1,0-1c0-.18.11-.31.28-.33h.04s2.53,0,2.53,0Z"/><path class="cls-2" d="M86.37,1.62c-.02-.17-.14-.29-.31-.29h-1.14c-.16.02-.28.15-.28.33v1.04c.02.17.15.29.32.29h1.14c.16-.02.28-.15.28-.33v-1.04Z"/><path class="cls-2" d="M4.42,1.33c.17,0,.3.12.31.29v.04s0,1,0,1c0,.18-.11.31-.28.33h-.04s-.95,0-.95,0c-.17,0-.3-.12-.31-.29v-.04s0-1,0-1c0-.18.11-.31.28-.33h.04s.95,0,.95,0Z"/><path class="cls-2" d="M21.63,1.62c-.02-.17-.14-.29-.31-.29h-1.14c-.16.02-.28.15-.28.33v1.04c.02.17.15.29.32.29h1.14c.16-.02.28-.15.28-.33v-1.04Z"/><path class="cls-2" d="M71.37,5.23c-.04-1.36-.9-2.24-2.21-2.24h-2.88c-.16.02-.28.15-.28.33v1.04c.02.17.15.29.32.29h2.9c.39.02.58.23.58.66v2.05c-.02.41-.22.61-.63.61h-2.88c-.16.02-.28.15-.28.33v1.04c.02.17.15.29.32.29h2.92c1.29-.04,2.13-.95,2.13-2.32v-2.08Z"/><path class="cls-2" d="M13.73,0c-.1,0-.19.05-.25.13l-2.02,2.74c-.04.05,0,.13.06.13h.32c.1,0,.19-.05.25-.13L14.11.13c.04-.05,0-.13-.06-.13h-.32Z"/><path class="cls-1" d="M75.47,6v2h-.63c-.52,0-.95-.45-.95-1V1.33c0-.18-.14-.33-.32-.33h-.95c-.17,0-.32.15-.32.33v5.67c0,1.47,1.13,2.67,2.53,2.67h6.79c.57,0,1.1-.21,1.51-.57l.28.43c.06.09.16.14.26.14h1.89c.72,0,1.37-.32,1.83-.83l.45.68c.06.09.16.14.26.14h1.89c.62,0,1.2-.24,1.64-.63l.32.49c.06.09.16.14.26.14h1.25c.63,0,1.2-.24,1.64-.64l.33.5c.06.09.16.14.26.14h.3c.66,0,1.26-.27,1.71-.7l.27.53c.06.11.16.18.28.18h2.18c.62,0,1.19-.27,1.59-.71l.37.57c.06.09.16.14.26.14h1.89c1.4,0,2.53-1.19,2.53-2.67v-2c0-.18-.14-.33-.32-.33h-.95c-.18,0-.32.15-.32.33v2c0,.55-.42,1-.95,1h-1.99c.06-.21.09-.43.09-.67v-2.33c0-.18-.14-.33-.32-.33h-.95c-.17,0-.31.15-.31.33v2.33c0,.37-.28.67-.63.67h-1.89v-3c0-.18-.14-.33-.32-.33h-.96c-.17,0-.32.15-.32.33v2c0,.55-.42,1-.95,1h-.19c.12-.31.18-.65.18-1v-2c0-.18-.14-.33-.32-.33h-.95c-.17,0-.32.15-.32.33v2c0,.55-.42,1-.95,1h-1.13c.12-.31.18-.65.18-1v-2c0-.18-.14-.33-.32-.33h-.95c-.17,0-.32.15-.32.33v2c0,.55-.42,1-.95,1h-2.08c.12-.31.18-.65.18-1v-2c0-.18-.14-.33-.32-.33h-.95c-.17,0-.32.15-.32.33v2c0,.55-.42,1-.95,1h-1.7c.09-.26.13-.54.13-.83,0-1.38-1.06-2.5-2.37-2.5h-1.44c-.44-.8-1.25-1.33-2.19-1.33-1.4,0-2.53,1.19-2.53,2.67ZM78,5c-.52,0-.95.45-.95,1v2h1.89v-2c0-.55-.42-1-.95-1ZM80.53,8v-1.67h1.11c.44,0,.79.37.79.83s-.35.83-.79.83h-1.11Z"/><path class="cls-1" d="M45.79,7c0,.35-.07.69-.18,1h4.6c.9,0,1.58-.71,1.58-1.67v-.33c0-.95-.68-1.67-1.58-1.67h-3.63c-.28,0-.34-.27-.16-.5l2.66-3.59c.12-.16.31-.25.5-.25h1.21c.24,0,.38.3.22.5l-1.59,2.17h.79c1.81,0,3.16,1.42,3.16,3.33v.33c0,.62-.14,1.18-.39,1.67h1.64c.52,0,.95-.45.95-1v-2c0-.18.14-.33.32-.33h.95c.17,0,.32.15.32.33v2c0,.35-.07.69-.18,1h1.13c.52,0,.95-.45.95-1v-2c0-.18.14-.33.32-.33h.95c.17,0,.32.15.32.33v2c0,.35-.07.69-.18,1h.19c.52,0,.95-.45.95-1v-2c0-.18.14-.33.32-.33h.95c.17,0,.32.15.32.33v2c0,1.47-1.13,2.67-2.53,2.67h-.3c-.1,0-.2-.05-.26-.14l-.33-.5c-.44.4-1.02.64-1.64.64h-1.25c-.1,0-.2-.05-.26-.14l-.32-.49c-.44.4-1.01.63-1.64.63h-1.89c-.1,0-.2-.05-.26-.14l-.33-.51c-.53.41-1.19.65-1.93.65h-11.69c-.1,0-.2-.05-.26-.14l-.32-.49c-.44.4-1.01.63-1.64.63h-6.3c-1.4,0-2.53-1.19-2.53-2.67v-2c0-.18.14-.33.32-.33h.95c.17,0,.32.15.32.33v2c0,.55.42,1,.95,1h6.3c.52,0,.95-.45.95-1v-2c0-.18.14-.33.32-.33h.95c.17,0,.32.15.32.33v2c0,.35-.07.69-.18,1h2.27c-.12-.31-.18-.65-.18-1v-1c0-1.47,1.13-2.67,2.53-2.67s2.53,1.19,2.53,2.67v1ZM44.21,6v1c0,.55-.42,1-.95,1s-.95-.45-.95-1v-1c0-.55.42-1,.95-1s.95.45.95,1Z"/><path class="cls-2" d="M18.95,6.33c0,.62-.14,1.18-.39,1.67h2.59c.52,0,.95-.45.95-1v-2c0-.18.14-.33.32-.33h.95c.17,0,.32.15.32.33v2c0,1.47-1.13,2.67-2.53,2.67h-2.2c-.1,0-.2-.05-.26-.14l-.57-.88c-.57.64-1.38,1.02-2.32,1.02h-5.45l-.48-.65c-.44.41-1.02.65-1.66.65h-2.83c-.1,0-.2-.05-.26-.14l-.35-.53h0c0,1.92-1.35,3.34-3.16,3.34h-.32c-.19,0-.38-.09-.5-.26l-.68-.91c-.18-.23-.13-.5.16-.5h1.34c.9,0,1.58-.71,1.58-1.67v-4c0-.18.14-.33.32-.33h.95c.17,0,.32.15.32.33v3h3.44c.52,0,.95-.45.95-1v-2c0-.18.14-.33.32-.33h.95c.17,0,.32.15.32.33v2c0,.35-.07.69-.18,1h5.25c.9,0,1.58-.71,1.58-1.67v-.33c0-.95-.68-1.67-1.58-1.67h-3.63c-.28,0-.34-.27-.16-.5L14.66.25c.12-.16.31-.25.5-.25h1.21c.24,0,.38.3.22.5l-1.59,2.17h.79c1.81,0,3.16,1.42,3.16,3.33v.33Z"/><path class="cls-2" d="M24.63,1.33c0-.18.14-.33.32-.33h.95c.17,0,.32.15.32.33v8c0,.18-.14.33-.32.33h-.95c-.17,0-.32-.15-.32-.33V1.33Z"/></svg>