<?xml version="1.0" encoding="UTF-8"?><svg id="Layer_1" xmlns="http://www.w3.org/2000/svg" width="33.75" height="40.33" viewBox="0 0 33.75 40.33"><defs><style>.cls-1{fill:#b6c2db;}.cls-2{fill:#484d57;}.cls-2,.cls-3{fill-rule:evenodd;}.cls-3,.cls-4{fill:#006;}</style></defs><path class="cls-2" d="M31.64,22.75l-.02-.15c-.17-1.11-.18-1.54-.06-2,.12-.44.34-.79,1.03-1.64.93-1.15,1.17-1.58,1.17-2.26,0-.68-.23-1.11-1.17-2.26l-.07-.09c-.61-.75-.84-1.13-.95-1.55-.09-.32-.1-.69-.05-1.19.02-.21.05-.39.11-.81.22-1.43.21-1.9-.12-2.46-.32-.55-.77-.83-2.01-1.31l-.1-.04c-1.04-.4-1.42-.6-1.76-.93-.33-.33-.54-.7-.94-1.74l-.04-.1c-.49-1.24-.76-1.67-1.32-1.99-.54-.31-1.06-.33-2.38-.14l-.13.02c-.4.06-.58.08-.79.1-.51.05-.88.03-1.2-.05-.44-.12-.8-.34-1.66-1.02-1.16-.92-1.59-1.15-2.28-1.15-.6,0-1.11.25-1.94.89-.08.06-.16.13-.33.26-.86.68-1.21.9-1.66,1.02-.47.12-.9.11-2.02-.06-1.45-.22-1.92-.2-2.48.12-.58.33-.83.74-1.36,2.1-.41,1.03-.61,1.41-.94,1.74-.31.3-.71.52-1.52.84-.06.02-.11.04-.23.09l-.1.04c-1.25.48-1.69.76-2.01,1.31-.31.54-.34,1.06-.14,2.36l.02.13c.06.4.08.57.11.78.05.5.03.87-.05,1.19-.12.44-.34.79-1.08,1.7-.1.12-.16.19-.22.27-.65.83-.9,1.33-.9,1.93s.25,1.1.9,1.93c.06.08.13.16.27.33.69.85.91,1.2,1.03,1.64.09.32.1.69.05,1.19-.02.21-.05.39-.11.81-.22,1.43-.21,1.9.12,2.46.32.55.77.83,2.01,1.31l.1.04c1.04.4,1.42.6,1.76.93.33.33.54.7.94,1.74l.04.1c.49,1.24.76,1.67,1.32,1.99.54.31,1.07.33,2.38.14l.13-.02c.4-.06.58-.08.79-.1.19-.02.36-.03.51-.03.26,0,.49.03.69.08.44.12.8.34,1.66,1.02,1.16.92,1.59,1.15,2.28,1.15s1.12-.23,2.28-1.15l.09-.07c.76-.6,1.14-.83,1.56-.94.47-.12.9-.11,2.02.06,1.45.22,1.92.2,2.48-.12.58-.33.83-.74,1.36-2.1.41-1.03.61-1.41.94-1.74.34-.33.71-.53,1.76-.93l.1-.04c1.25-.48,1.69-.76,2.01-1.31.31-.54.34-1.06.15-2.31ZM32.02,16.71c0,.14-.22.48-.78,1.18-.86,1.06-1.16,1.54-1.35,2.27-.2.75-.19,1.33.02,2.72l.02.13c.11.71.12,1.11.07,1.19-.06.1-.42.29-1.14.57l-.1.04c-1.3.5-1.81.78-2.35,1.32-.55.54-.83,1.04-1.33,2.33-.32.81-.51,1.17-.62,1.23-.1.06-.51.04-1.36-.09-1.39-.21-1.97-.22-2.73-.02-.71.19-1.23.49-2.2,1.26l-.09.08c-.71.56-1.05.78-1.2.78s-.49-.21-1.2-.78c-1.07-.85-1.56-1.14-2.29-1.34-.35-.09-.73-.14-1.14-.14-.21,0-.44.01-.68.04-.25.02-.45.05-.93.12l-.13.02c-.72.11-1.12.12-1.21.07-.1-.06-.29-.41-.58-1.13l-.04-.1c-.51-1.29-.79-1.79-1.33-2.33-.55-.54-1.05-.82-2.35-1.32l-.1-.04c-.73-.28-1.09-.47-1.15-.57-.06-.1-.04-.51.1-1.37.07-.43.09-.63.12-.87.07-.71.04-1.27-.1-1.8-.2-.73-.49-1.21-1.4-2.33-.09-.11-.15-.18-.2-.26-.36-.45-.53-.76-.53-.87s.18-.42.53-.87c.06-.07.12-.15.25-.31.86-1.06,1.16-1.54,1.35-2.27.14-.53.17-1.1.1-1.8-.02-.24-.05-.44-.12-.92l-.02-.13c-.11-.71-.12-1.11-.07-1.19.06-.1.42-.29,1.15-.57l.1-.04c.13-.05.18-.07.24-.09,1.05-.41,1.61-.73,2.11-1.22.55-.54.83-1.04,1.33-2.33.32-.81.51-1.17.62-1.23.1-.06.51-.04,1.36.09,1.39.21,1.97.22,2.73.02.74-.19,1.22-.49,2.35-1.38.11-.09.19-.15.26-.2.46-.35.77-.53.88-.53.15,0,.49.21,1.2.78,1.07.85,1.56,1.14,2.29,1.34.54.14,1.11.17,1.82.1.24-.02.45-.05.93-.12l.13-.02c.71-.11,1.12-.12,1.21-.07.1.06.29.41.58,1.13l.04.1c.51,1.29.79,1.79,1.33,2.33.55.54,1.05.82,2.35,1.32l.1.04c.73.28,1.09.47,1.15.57.06.1.04.51-.1,1.37-.07.43-.09.63-.12.87-.07.7-.04,1.27.1,1.8.19.7.5,1.22,1.28,2.18l.08.09c.57.7.78,1.04.78,1.18Z"/><path class="cls-3" d="M17.21,27.51c5.87,0,10.63-4.68,10.63-10.46s-4.76-10.46-10.63-10.46-10.63,4.68-10.63,10.46,4.76,10.46,10.63,10.46ZM23.75,10.81c-.41-.3-.99-.21-1.29.2l-7.49,10.22-3.52-2.77c-.4-.31-.98-.25-1.3.15-.32.4-.25.97.15,1.29l4.28,3.37c.41.32,1.01.24,1.32-.18l8.05-10.99c.3-.41.21-.98-.2-1.28Z"/><path class="cls-1" d="M17.21,5.91c.39,0,.7.31.7.69s-.31.69-.7.69c-5.47,0-9.91,4.37-9.91,9.76s4.44,9.76,9.91,9.76,9.91-4.37,9.91-9.76c0-.38.31-.69.7-.69s.7.31.7.69c0,6.15-5.06,11.14-11.31,11.14s-11.31-4.99-11.31-11.14,5.06-11.14,11.31-11.14Z"/><path class="cls-4" d="M25.3,32.64c0-.41.34-.74.77-.74s.77.33.77.74v6.95c0,.48-.46.83-.94.73l-8.61-1.95-8.75,1.95c-.48.11-.94-.25-.94-.73v-4.63c0-.41.34-.74.77-.74s.77.33.77.74v3.7l7.98-1.78c.11-.03.23-.03.34,0l7.84,1.77v-6.01Z"/><path class="cls-4" d="M8.44,31.89c-.22,0-.44.09-.6.25-.16.16-.25.37-.25.6s.09.44.25.6c.16.16.37.25.6.25s.44-.09.6-.25c.16-.16.25-.37.25-.6s-.09-.44-.25-.6c-.16-.16-.37-.25-.6-.25Z"/><path class="cls-1" d="M19.91,5.91c-.22,0-.44.09-.6.25-.16.16-.25.37-.25.6s.09.44.25.6c.16.16.37.25.6.25s.44-.09.6-.25c.16-.16.25-.37.25-.6s-.09-.44-.25-.6c-.16-.16-.37-.25-.6-.25Z"/></svg>